<?xml version="1.0" standalone="no"?><!DOCTYPE svg PUBLIC "-//W3C//DTD SVG 1.1//EN" "http://www.w3.org/Graphics/SVG/1.1/DTD/svg11.dtd"><svg t="1610436132039" class="icon" viewBox="0 0 1024 1024" version="1.1" xmlns="http://www.w3.org/2000/svg" p-id="3839" xmlns:xlink="http://www.w3.org/1999/xlink" width="32" height="32"><defs><style type="text/css"></style></defs><path d="M63.3 558.1c0 16.4 13.3 29.7 29.7 29.7h839.1v-29.7-29.7h-839c-16.4-0.1-29.8 13.2-29.8 29.7zM93.1 248.3h561.5v-29.7-29.7H93.1c-16.4 0-29.7 13.3-29.7 29.7s13.3 29.7 29.7 29.7zM63.3 897.6c0 16.4 13.3 29.7 29.7 29.7h839.1v-29.7-29.7h-839c-16.4-0.1-29.8 13.3-29.8 29.7zM836.6 341.2c67.7 0 122.7-55 122.7-122.7s-55-122.7-122.7-122.7S714 150.9 714 218.5s55 122.7 122.6 122.7z m0-198.4c41.7 0 75.7 34 75.7 75.7s-34 75.7-75.7 75.7-75.7-34-75.7-75.7 34-75.7 75.7-75.7z" fill="#4D4D4D" p-id="3840"></path></svg>